<?xml version="1.0" encoding="UTF-8"?>
<svg width="384" height="384" viewBox="0 0 512 512" xmlns="http://www.w3.org/2000/svg">
  <defs>
    <linearGradient id="bgGradient" x1="0%" y1="0%" x2="100%" y2="100%">
      <stop offset="0%" style="stop-color:#10B981"/>
      <stop offset="100%" style="stop-color:#14B8A6"/>
    </linearGradient>
    <linearGradient id="cartGradient" x1="0%" y1="0%" x2="100%" y2="100%">
      <stop offset="0%" style="stop-color:#FFFFFF"/>
      <stop offset="100%" style="stop-color:#F0FDF4"/>
    </linearGradient>
  </defs>
  
  <!-- Background -->
  <rect width="512" height="512" rx="108" fill="url(#bgGradient)"/>
  
  <!-- Cart Icon -->
  <g transform="translate(100, 100) scale(1.2)">
    <!-- Cart body -->
    <path d="M40 60 L60 60 L65 80 M80 200 L220 200 L280 80 L65 80 M80 200 L60 80 M80 200 L50 240 C45 250 50 260 60 260 L220 260" 
          fill="none" 
          stroke="white" 
          stroke-width="24" 
          stroke-linecap="round" 
          stroke-linejoin="round"/>
    
    <!-- Cart wheels -->
    <circle cx="100" cy="300" r="28" fill="white"/>
    <circle cx="200" cy="300" r="28" fill="white"/>
    
    <!-- Speed lines -->
    <line x1="260" y1="100" x2="300" y2="100" stroke="white" stroke-width="12" stroke-linecap="round" opacity="0.7"/>
    <line x1="270" y1="140" x2="310" y2="140" stroke="white" stroke-width="12" stroke-linecap="round" opacity="0.5"/>
    <line x1="260" y1="180" x2="290" y2="180" stroke="white" stroke-width="12" stroke-linecap="round" opacity="0.3"/>
  </g>
</svg>